/* XPM */
static char *product_logo_32[] = {
/* columns rows colors chars-per-pixel */
"32 32 164 2 ",
"   c #1E468A",
".  c #1E4988",
"X  c #234F94",
"o  c #204F9B",
"O  c #215096",
"+  c #2251A0",
"@  c #2A58A5",
"#  c #2658AC",
"$  c #275FBB",
"%  c #3661AD",
"&  c #366AA8",
"*  c #3C7CA6",
"=  c #2760BF",
"-  c #2861BF",
";  c #2D6BBA",
":  c #3264B5",
">  c #3B6BBB",
",  c #3071B7",
"<  c #3378B4",
"1  c #446FB9",
"2  c #5577B3",
"3  c #527BB1",
"4  c #587BB8",
"5  c #2C64C0",
"6  c #3369C3",
"7  c #396DC5",
"8  c #3E72C6",
"9  c #3E72CA",
"0  c #3D75D4",
"q  c #4D78C0",
"w  c #4677C9",
"e  c #4C7BC9",
"r  c #447CDD",
"t  c #447DE0",
"y  c #3C879C",
"u  c #3B87AD",
"i  c #3B88AD",
"p  c #3881B1",
"a  c #40929A",
"s  c #449A9F",
"d  c #408BAC",
"f  c #4889AD",
"g  c #588BAA",
"h  c #469BA1",
"j  c #499EA6",
"k  c #4392AD",
"l  c #4798AC",
"z  c #4B9EAC",
"x  c #539CAE",
"c  c #438FB4",
"v  c #438DBB",
"b  c #4695B0",
"n  c #489BB0",
"m  c #539FB3",
"M  c #6180AF",
"N  c #6783B7",
"B  c #4AA1A7",
"V  c #4DA4AB",
"C  c #53A1AD",
"Z  c #4EA5B3",
"A  c #55A3B6",
"S  c #54ADB4",
"D  c #58A5B9",
"F  c #56B1B7",
"G  c #57B1B9",
"H  c #5AB4BD",
"J  c #5DBABF",
"K  c #448AC5",
"L  c #4589CF",
"P  c #5F84C5",
"I  c #5C88CD",
"U  c #4B81DD",
"Y  c #4788DD",
"T  c #6E8DC3",
"R  c #618BD1",
"E  c #6991D7",
"W  c #6992D9",
"Q  c #789AD6",
"!  c #7097DB",
"~  c #769BDA",
"^  c #7B9ED9",
"/  c #5EB9C1",
"(  c #61BEC6",
")  c #6EA6D4",
"_  c #70A2D3",
"`  c #4682E4",
"'  c #4887E6",
"]  c #4986ED",
"[  c #4E89ED",
"{  c #568BE7",
"}  c #5B8EE6",
"|  c #5089EA",
" . c #4785F0",
".. c #4A87F0",
"X. c #4A88F1",
"o. c #5C93F1",
"O. c #6191E4",
"+. c #6397EF",
"@. c #6D9AE8",
"#. c #739CE1",
"$. c #789FE2",
"%. c #6C9EF3",
"&. c #77AAE0",
"*. c #75A1EE",
"=. c #7DA5EB",
"-. c #65C2CB",
";. c #68C8CE",
":. c #6ACAD1",
">. c #81A1D7",
",. c #8EACDE",
"<. c #9DB1D4",
"1. c #9AB3DE",
"2. c #A0B6DB",
"3. c #B1BED6",
"4. c #81A7E7",
"5. c #83AEEF",
"6. c #8BAFED",
"7. c #8FB0EA",
"8. c #94B1E3",
"9. c #93B3EB",
"0. c #9BB8EB",
"q. c #86AFF4",
"w. c #88AFF3",
"e. c #87B0F5",
"r. c #88B0F5",
"t. c #93B7F6",
"y. c #95B9F6",
"u. c #9BBCF5",
"i. c #A2BBE5",
"p. c #A2BFF2",
"a. c #BBC7DC",
"s. c #BDC8DB",
"d. c #ADC2E7",
"f. c #B6CBEF",
"g. c #BDCFEC",
"h. c #B1C9F3",
"j. c #B0CBF8",
"k. c #C3CBD9",
"l. c #C7D0DD",
"z. c #CCD2DC",
"x. c #C3D0E7",
"c. c #CCD4E3",
"v. c #C3D3EE",
"b. c #C8D6EF",
"n. c #D4D8E0",
"m. c #D8DDE7",
"M. c #CDDBF1",
"N. c #CCDDFB",
"B. c #D3DDF0",
"V. c #DBE5F5",
"C. c #DDE8FB",
"Z. c #E4E5E6",
"A. c #EAEAEB",
"S. c #F0F0EE",
"D. c #EDEFF3",
"F. c #E3ECFC",
"G. c #EEF0F4",
"H. c #ECF2FD",
"J. c #F0F2F5",
"K. c #F9F9F7",
"L. c #F2F5FC",
"P. c #F7F9FD",
"I. c #F9FAFD",
"U. c #FFFFFF",
/* pixels */
"U.U.U.U.U.U.U.U.U.U.U.U.U.U.U.U.U.U.U.U.U.U.U.U.U.U.U.U.U.U.U.U.",
"U.U.U.U.U.U.U.U.U.U.U.U.L.V.b.g.g.b.V.L.U.U.U.U.U.U.U.U.U.U.U.U.",
"U.U.U.U.U.U.U.U.U.P.M.,.R w 7 6 6 7 w R ,.M.P.U.U.U.U.U.U.U.U.U.",
"U.U.U.U.U.U.U.U.M.^ 8 5 = = = = = = = = 5 8 ^ M.U.U.U.U.U.U.U.U.",
"U.U.U.U.U.U.P.i.w - = - - - - - - - - - - = - w i.P.U.U.U.U.U.U.",
"U.U.U.U.U.L.,.6 = - - - - - - - - - - - - - - = 6 ,.L.U.U.U.U.U.",
"U.U.U.U.I.,.5 = - - - - - - - - - - - - - - - - = 5 ,.I.U.U.U.U.",
"U.U.U.U.d.6 = - - - - - - - - - - - - - - - - - - = 6 d.U.U.U.U.",
"U.U.U.C.e $ - - - - - - - - ; i u ; - - - - - - - - - e V.U.U.U.",
"U.U.U.t.0 # - - - - - = ; p Z J J Z f 3 2 2 2 2 2 4 P E h.U.U.U.",
"U.U.F.o.] : + = 5 = - < n J ;.:.:.;.J C g M N T Q 4.q.r.y.H.U.U.",
"U.U.j...X.t O o $ , k H -.:.:.:.:.:.:.-.H x _ q.r.r.r.r.e.N.U.U.",
"U.U.q. ...X.7   O y B ( :.:.:.:.:.:.:.:.( B A q.r.r.r.r.q.j.U.U.",
"U.L.%.......] @ . y V j S -.:.:.:.:.-.F V F A 5.r.r.r.r.q.u.P.U.",
"U.H.o.......X.0 X y H H V B H ( ( H V S ( -.D 5.r.r.r.r.q.y.L.U.",
"U.F.o.........] : y H H H S j s h V / -.-.( D 5.r.r.r.r.e.t.H.U.",
"U.F.o...........` k H H H H S a h / -.-.-.( D 5.r.r.r.r.q.t.H.U.",
"U.H.+...........] b H H H H H j S -.-.-.-.( D 5.r.r.r.r.q.y.L.U.",
"U.P.*. .........] k H H H H H V S -.-.-.-.( A 5.r.r.r.r.q.p.I.U.",
"U.U.9. .........] d V H H H H V S -.-.-.-.F m q.r.r.r.r.q.f.U.U.",
"U.U.v.[ ..........Y c V G H H V S -.-.( S D &.r.r.r.r.r.r.B.U.U.",
"U.U.G.@.............] L k V H V S -.G z ) q.r.r.r.r.r.q.0.J.U.U.",
"U.U.U.d.[ ..............' K l h V z * I r.r.r.r.r.r.r.w.x.U.U.U.",
"U.U.U.D.$...................Y v d & 1 =.r.r.r.r.r.r.q.i.G.U.U.U.",
"U.U.U.U.c.O.....................9 % W r.r.r.r.r.r.e.9.m.U.U.U.U.",
"U.U.U.U.U.a.} ................] > q q.r.r.r.r.r.e.7.c.I.U.U.U.U.",
"U.U.U.U.U.K.a.O...............` > #.r.r.r.r.r.q.8.l.K.U.U.U.U.U.",
"U.U.U.U.U.U.I.z.^ | ........X.r I q.r.r.r.e.6.2.n.I.U.U.U.U.U.U.",
"U.U.U.U.U.U.U.U.A.3.~ { ] ....U =.r.q.w.6.1.s.A.U.U.U.U.U.U.U.U.",
"U.U.U.U.U.U.U.U.U.I.A.k.<.>.! ^ 8.1.2.3.z.A.I.U.U.U.U.U.U.U.U.U.",
"U.U.U.U.U.U.U.U.U.U.U.U.K.S.Z.Z.Z.Z.A.K.U.U.U.U.U.U.U.U.U.U.U.U.",
"U.U.U.U.U.U.U.U.U.U.U.U.U.U.U.U.U.U.U.U.U.U.U.U.U.U.U.U.U.U.U.U."
};
